HIERARCHY
ROOT Hips
{
	OFFSET 0.00000 0.00000 0.00000
	CHANNELS 6 Xposition Yposition Zposition Zrotation Yrotation Xrotation 
	JOINT LHipJoint
	{
		OFFSET 0 0 0
		CHANNELS 3 Zrotation Yrotation Xrotation
		JOINT LeftHip
		{
			OFFSET 1.54859 -1.61379 0.86856
			CHANNELS 3 Zrotation Yrotation Xrotation
			JOINT LeftKnee
			{
				OFFSET 2.25087 -6.18423 0.00000
				CHANNELS 3 Zrotation Yrotation Xrotation
				JOINT LeftAnkle
				{
					OFFSET 2.40328 -6.60297 0.00000
					CHANNELS 3 Zrotation Yrotation Xrotation
					JOINT LeftToe
					{
						OFFSET 0.17435 -0.47901 2.02453
						CHANNELS 3 Zrotation Yrotation Xrotation
						End Site
						{
							OFFSET 0.00000 -0.00000 1.04844
						}
					}
				}
			}
		}
	}
	JOINT RHipJoint
	{
		OFFSET 0 0 0
		CHANNELS 3 Zrotation Yrotation Xrotation
		JOINT RightHip
		{
			OFFSET -1.54669 -1.61379 0.86856
			CHANNELS 3 Zrotation Yrotation Xrotation
			JOINT RightKnee
			{
				OFFSET -2.28132 -6.26789 0.00000
				CHANNELS 3 Zrotation Yrotation Xrotation
				JOINT RightAnkle
				{
					OFFSET -2.51636 -6.91365 0.00000
					CHANNELS 3 Zrotation Yrotation Xrotation
					JOINT RightToe
					{
						OFFSET -0.15124 -0.41552 2.21090
						CHANNELS 3 Zrotation Yrotation Xrotation
						End Site
						{
							OFFSET -0.00000 -0.00000 1.13399
						}
					}
				}
			}
		}
	}
	JOINT lowerback
	{
		OFFSET 0 0 0
		CHANNELS 3 Zrotation Yrotation Xrotation
		JOINT Chest
		{
			OFFSET -0.04287 2.26161 -0.25690
			CHANNELS 3 Zrotation Yrotation Xrotation
			JOINT Chest2
			{
				OFFSET 0.02248 2.28395 -0.10140
				CHANNELS 3 Zrotation Yrotation Xrotation
				JOINT lowerneck
				{
					OFFSET 0 0 0
					CHANNELS 3 Zrotation Yrotation Xrotation
					JOINT Neck
					{
						OFFSET -0.11644 1.38496 0.11345
						CHANNELS 3 Zrotation Yrotation Xrotation
						JOINT Head
						{
							OFFSET 0.29383 1.36600 0.06642
							CHANNELS 3 Zrotation Yrotation Xrotation
							End Site
							{
								OFFSET 0.11075 1.41395 -0.00294
							}
						}
					}
				}
				JOINT LeftCollar
				{
					OFFSET 0 0 0
					CHANNELS 3 Zrotation Yrotation Xrotation
					JOINT LeftShoulder
					{
						OFFSET 3.51628 0.59542 -0.30346
CHANNELS 3 Zrotation Xrotation Yrotation
						JOINT LeftElbow
						{
OFFSET 0 -4.764050 0.000000
CHANNELS 3 Zrotation Xrotation Yrotation
							JOINT LeftWrist
							{
OFFSET 0 -3.137590 -0.000000
CHANNELS 3 Zrotation Xrotation Yrotation
								JOINT lhand
								{
									OFFSET 0 0 0
CHANNELS 3 Zrotation Xrotation Yrotation
									JOINT LFingers
									{
OFFSET 0 -0.732260 -0.000000
CHANNELS 3 Zrotation Xrotation Yrotation
										End Site
										{
OFFSET 0 -0.590370 -0.000000
										}
									}
								}
								JOINT LThumb
								{
OFFSET 0 0.000000 0.000000
CHANNELS 3 Zrotation Xrotation Yrotation
									End Site
									{
OFFSET 0 -0.599380 0.599380
									}
								}
							}
						}
					}
				}
				JOINT RightCollar
				{
					OFFSET 0 0 0
					CHANNELS 3 Zrotation Yrotation Xrotation
					JOINT RightShoulder
					{
						OFFSET -3.30990 0.84213 -0.36430
CHANNELS 3 Zrotation Xrotation Yrotation
						JOINT RightElbow
						{
OFFSET 0 -5.101610 -0.000000
CHANNELS 3 Zrotation Xrotation Yrotation
							JOINT RightWrist
							{
OFFSET 0 -3.232670 -0.000000
CHANNELS 3 Zrotation Xrotation Yrotation
								JOINT rhand
								{
									OFFSET 0 0 0
CHANNELS 3 Zrotation Xrotation Yrotation
									JOINT RFingers
									{
OFFSET 0 -0.702000 -0.000000
CHANNELS 3 Zrotation Xrotation Yrotation
										End Site
										{
OFFSET 0 -0.565970 -0.000000
										}
									}
								}
								JOINT RThumb
								{
OFFSET 0 0.000000 0.000000
CHANNELS 3 Zrotation Xrotation Yrotation
									End Site
									{
OFFSET 0 -0.574610 0.574610
									}
								}
							}
						}
					}
				}
			}
		}
	}
}
MOTION
Frames: 5
Frame Time: 0.008333333333333333
-36.230700 15.064300 2.650700 7.011000 65.978000 8.962800 0.000000 0.000000 0.000000 -12.204300 22.913200 -8.920700 3.208100 11.024500 32.362500 1.719700 -0.038500 -24.812100 1.972000 -8.807500 -25.195000 0.000000 0.000000 0.000000 1.575700 -2.454000 -38.186700 -10.528600 -17.696600 61.240900 -0.855400 3.788700 -16.611300 -0.039500 1.282300 -3.525900 -11.894200 -0.542500 11.552900 -3.909600 -1.582900 6.494600 2.717100 -0.906900 0.669300 -20.671300 -14.581000 6.030600 40.952400 -16.055000 -25.306900 18.151300 -9.693200 -1.772700 0.000000 -0.000000 0.000000 16.248900 -0.690100 -75.862600 137.951100 -49.238000 100.022500 24.757100 -13.240200 -19.354000 0.000000 0.000000 0.000000 -7.125000 0.000000 0.000000 -3.580500 51.092100 0.538000 0.000000 -0.000000 0.000000 -28.212300 7.140400 71.007600 -140.358300 -47.856200 -101.826900 -70.535900 -93.990100 -45.800900 0.000000 0.000000 0.000000 7.125000 0.000000 -0.000000 -13.106900 -40.922800 -18.687300
-36.205233 15.063286 2.676167 7.032824 65.806977 8.832984 0.000000 0.000000 0.000000 -12.136913 22.912261 -8.335099 3.138947 10.915343 31.996265 1.720489 0.158854 -24.885084 1.928615 -8.714758 -24.907684 0.000000 0.000000 0.000000 1.255742 -2.279409 -38.009555 -10.394840 -17.624893 60.798600 -0.822533 3.519038 -16.307118 -0.041979 1.321065 -3.632728 -12.044488 -0.665067 11.454824 -3.730276 -1.739987 6.550005 2.998557 -1.004262 0.819175 -20.816742 -14.415048 5.661472 40.505480 -15.908243 -24.904567 17.929530 -9.531155 -1.702608 0.000000 0.000000 0.000000 16.090949 -2.164658 -75.971306 138.259301 -49.066376 100.255125 24.707330 -13.492057 -19.324063 0.000000 0.000000 0.000000 -7.125000 0.000000 0.000000 -3.622833 51.051420 0.540667 0.000000 0.000000 0.000000 -29.312095 6.313835 70.210446 -140.990591 -47.464234 -102.291850 -71.038262 -94.867299 -46.027027 0.000000 0.000000 0.000000 7.125000 0.000000 0.000000 -13.168690 -41.462499 -18.782784
-36.179765 15.062272 2.701635 7.054648 65.635955 8.703167 0.000000 0.000000 0.000000 -12.069525 22.911322 -7.749498 3.069794 10.806186 31.630029 1.721278 0.356208 -24.958068 1.885230 -8.622016 -24.620367 0.000000 0.000000 0.000000 0.935783 -2.104818 -37.832410 -10.261079 -17.553186 60.356301 -0.789665 3.249376 -16.002936 -0.044458 1.359829 -3.739556 -12.194776 -0.787634 11.356748 -3.550952 -1.897074 6.605410 3.280013 -1.101625 0.969050 -20.962185 -14.249097 5.292345 40.058560 -15.761486 -24.502234 17.707761 -9.369110 -1.632516 0.000000 0.000000 0.000000 15.932998 -3.639215 -76.080012 138.567502 -48.894753 100.487750 24.657559 -13.743915 -19.294125 0.000000 0.000000 0.000000 -7.125000 0.000000 0.000000 -3.665166 51.010739 0.543334 0.000000 0.000000 0.000000 -30.411891 5.487270 69.413293 -141.622883 -47.072268 -102.756800 -71.540625 -95.744499 -46.253154 0.000000 0.000000 0.000000 7.125000 0.000000 0.000000 -13.230481 -42.002199 -18.878268
-36.150085 15.060661 2.727077 7.004862 65.394642 8.490639 0.000000 0.000000 0.000000 -11.987052 22.953204 -7.128993 3.002570 10.698729 31.270924 1.726875 0.649279 -25.103982 1.882142 -8.614726 -24.598226 0.000000 0.000000 0.000000 0.635314 -1.891618 -37.638529 -10.125301 -17.479106 59.905576 -0.759260 2.982188 -15.721973 -0.053763 1.476725 -4.062064 -12.269330 -0.906001 11.252696 -3.408131 -2.043820 6.641098 3.480496 -1.189395 1.094247 -21.077354 -14.065496 4.931185 39.611475 -15.591738 -24.059198 17.486892 -9.198183 -1.563097 0.000000 0.000000 0.000000 15.616831 -5.233495 -76.169738 138.759610 -48.787863 100.632779 24.707857 -13.731066 -19.361897 0.000000 0.000000 0.000000 -7.125000 0.000000 0.000000 -3.631347 51.092408 0.544504 0.000000 0.000000 0.000000 -31.473699 4.652965 68.604416 -142.224508 -46.692508 -103.197034 -71.878083 -96.382064 -46.391900 0.000000 0.000000 0.000000 7.125000 0.000000 0.000000 -13.281068 -42.355857 -18.955545
-36.112147 15.057881 2.752469 6.814682 65.015523 8.115952 0.000000 0.000000 0.000000 -11.875003 23.079039 -6.440057 2.939127 10.594606 30.925799 1.741900 1.130005 -25.392876 1.958056 -8.774968 -25.095968 0.000000 0.000000 0.000000 0.373052 -1.602724 -37.411839 -9.985568 -17.400375 59.438335 -0.733679 2.719851 -15.486530 -0.076451 1.746801 -4.807419 -12.195407 -1.016134 11.136928 -3.336875 -2.170293 6.638130 3.522228 -1.258360 1.171062 -21.133172 -13.847295 4.585646 39.164067 -15.376918 -23.536364 17.267789 -9.009844 -1.494996 0.000000 0.000000 0.000000 14.990474 -7.062493 -76.222250 138.724113 -48.807883 100.606072 24.954343 -13.199255 -19.621229 0.000000 0.000000 0.000000 -7.125000 0.000000 0.000000 -3.448229 51.413944 0.542738 0.000000 0.000000 0.000000 -32.461032 3.803487 67.772554 -142.766010 -46.336678 -103.588812 -71.892244 -96.549818 -46.359333 0.000000 0.000000 0.000000 7.125000 0.000000 0.000000 -13.309691 -42.344776 -18.997127
